<?xml version="1.0" encoding="UTF-8" standalone="no"?>
<!-- Created with Inkscape (http://www.inkscape.org/) -->

<svg
   version="1.1"
   id="svg8474"
   width="800"
   height="800"
   viewBox="0 0 800 800"
   sodipodi:docname="sneaker-clipart-pdv.svg"
   inkscape:version="1.2 (dc2aedaf03, 2022-05-15)"
   xmlns:inkscape="http://www.inkscape.org/namespaces/inkscape"
   xmlns:sodipodi="http://sodipodi.sourceforge.net/DTD/sodipodi-0.dtd"
   xmlns="http://www.w3.org/2000/svg"
   xmlns:svg="http://www.w3.org/2000/svg">
  <defs
     id="defs8478">
    <clipPath
       clipPathUnits="userSpaceOnUse"
       id="clipPath8490">
      <path
         d="M 0,600 H 600 V 0 H 0 Z"
         id="path8488" />
    </clipPath>
  </defs>
  <sodipodi:namedview
     id="namedview8476"
     pagecolor="#ffffff"
     bordercolor="#000000"
     borderopacity="0.25"
     inkscape:showpageshadow="2"
     inkscape:pageopacity="0.0"
     inkscape:pagecheckerboard="0"
     inkscape:deskcolor="#d1d1d1"
     showgrid="false"
     inkscape:zoom="1.04625"
     inkscape:cx="400"
     inkscape:cy="400.4779"
     inkscape:window-width="1920"
     inkscape:window-height="1017"
     inkscape:window-x="-8"
     inkscape:window-y="-8"
     inkscape:window-maximized="1"
     inkscape:current-layer="g8482">
    <inkscape:page
       x="0"
       y="0"
       id="page8480"
       width="800"
       height="800" />
  </sodipodi:namedview>
  <g
     id="g8482"
     inkscape:groupmode="layer"
     inkscape:label="Page 1"
     transform="matrix(1.3333333,0,0,-1.3333333,0,800)">
    <g
       id="g8484">
      <g
         id="g8486"
         clip-path="url(#clipPath8490)">
        <g
           id="g8492"
           transform="translate(201.8604,349.0352)">
          <path
             d="M 0,0 C 1.653,1.515 3.458,2.854 5.287,4.151 5.233,4.258 5.196,4.38 5.124,4.475 4.527,5.255 3.354,5.561 1.821,5.334 1.667,5.312 1.512,5.283 1.354,5.25 -0.199,4.926 -1.873,4.119 -3.406,2.945 -5.098,1.651 -6.4,0.082 -7.079,-1.477 -7.697,-2.899 -7.71,-4.111 -7.113,-4.891 -5.806,-6.599 -1.898,-5.9 1.415,-3.359 3.107,-2.067 4.412,-0.497 5.091,1.061 5.579,2.185 5.674,3.167 5.403,3.92 3.538,2.703 1.701,1.442 0,0 m 349.053,-65.459 c -2.11,-7.588 -5.505,-14.857 -10.753,-20.661 -5.13,-5.885 -11.393,-10.661 -17.904,-14.998 -6.548,-4.303 -13.371,-8.221 -20.244,-12.05 -6.886,-3.806 -13.83,-7.543 -20.781,-11.259 l -0.493,-0.262 -0.178,-0.555 c -1.325,-4.14 -2.827,-8.217 -4.635,-12.155 -1.843,-3.919 -3.999,-7.685 -6.487,-11.214 -4.929,-7.097 -11.334,-13.12 -18.685,-17.718 -7.35,-4.623 -15.544,-7.861 -23.945,-10.344 -8.396,-2.555 -17.066,-4.233 -25.626,-6.343 8.691,1.463 17.401,2.848 26.005,4.97 8.57,2.171 17.041,5.196 24.74,9.8 7.708,4.552 14.484,10.764 19.706,18.075 2.609,3.658 4.864,7.556 6.79,11.6 1.811,3.886 3.327,7.894 4.611,11.969 6.767,3.688 13.572,7.306 20.25,11.184 6.845,3.95 13.661,7.994 20.163,12.557 6.493,4.541 12.721,9.667 17.717,15.914 5.037,6.22 8.225,13.77 9.749,21.49 m -142.449,-98.946 c 16.989,4.162 33.727,9.223 50.261,14.847 -16.722,-5.022 -33.524,-9.816 -50.569,-13.515 -17.009,-3.788 -34.265,-6.68 -51.631,-7.345 -8.677,-0.294 -17.364,-0.025 -25.95,1.064 -8.589,1.065 -17.044,3.043 -25.251,5.796 -16.447,5.483 -31.838,13.881 -48.047,20.591 -16.185,6.767 -33.128,11.835 -50.4,14.934 -8.627,1.598 -17.333,2.722 -26.055,3.538 -8.737,0.816 -17.456,1.234 -26.168,1.765 -17.423,1.064 -34.856,2.1 -52.158,4.222 -8.64,1.062 -17.281,2.366 -25.673,4.671 -4.182,1.17 -8.318,2.604 -12.122,4.702 -1.891,1.058 -3.695,2.295 -5.233,3.829 -1.52,1.541 -2.753,3.409 -3.351,5.518 0.528,-2.127 1.707,-4.057 3.198,-5.665 1.505,-1.604 3.293,-2.919 5.172,-4.052 3.798,-2.224 7.94,-3.766 12.126,-5.05 8.4,-2.526 17.051,-4.048 25.701,-5.325 17.338,-2.4 34.781,-3.687 52.195,-5.015 l 13.062,-0.964 c 4.361,-0.307 8.688,-0.613 13.02,-1.053 8.658,-0.85 17.285,-2.007 25.82,-3.631 17.098,-3.152 33.783,-8.238 49.793,-15.009 16.086,-6.56 31.55,-14.913 48.319,-20.424 16.724,-5.611 34.579,-7.595 52.095,-6.586 17.55,0.937 34.847,4.084 51.846,8.157 m -29.367,-15.642 c -1.784,0.44 -3.575,0.869 -5.403,1.093 -1.807,0.233 -3.715,0.378 -5.483,-0.262 -0.88,-0.329 -1.637,-0.952 -2.136,-1.752 -0.454,-0.828 -0.683,-1.748 -0.79,-2.669 -0.212,-1.8 -0.091,-3.599 -0.025,-5.385 -3.573,-0.777 -7.225,-1.289 -10.863,-1.017 -3.682,0.252 -7.258,1.424 -10.382,3.347 -1.569,0.953 -3.035,2.07 -4.465,3.254 -1.448,1.154 -2.819,2.44 -4.536,3.358 -0.842,0.446 -1.892,0.72 -2.819,0.746 -0.933,0.064 -1.867,0.102 -2.801,0.131 -0.937,0.016 -1.876,0.019 -2.824,-0.04 -0.943,-0.064 -1.902,-0.157 -2.862,-0.536 -0.462,-0.203 -1.012,-0.56 -1.192,-1.192 -0.166,-0.612 0.003,-1.153 0.16,-1.614 0.35,-0.924 0.801,-1.723 1.087,-2.56 0.277,-0.826 0.383,-1.685 0.021,-2.402 -0.333,-0.724 -1.026,-1.293 -1.79,-1.724 -1.54,-0.926 -3.313,-1.291 -5.096,-1.172 -1.785,0.149 -3.535,0.704 -5.194,1.45 -3.323,1.522 -6.312,3.746 -9.11,6.138 -2.788,2.411 -5.41,5.054 -7.797,7.844 l -0.109,0.13 -0.152,0.039 c -1.444,0.387 -2.929,0.706 -4.482,0.701 -0.775,-0.012 -1.571,-0.107 -2.343,-0.386 -0.771,-0.275 -1.504,-0.798 -1.981,-1.504 -0.963,-1.444 -0.953,-3.141 -0.769,-4.635 0.159,-1.125 0.433,-2.2 0.803,-3.255 -8.933,2.8 -17.643,6.302 -25.979,10.562 -8.703,4.408 -16.928,9.665 -25.198,14.896 -4.136,2.612 -8.317,5.203 -12.722,7.428 -4.406,2.217 -9.052,4.035 -14.072,4.698 -4.963,0.244 -9.821,0.084 -14.723,0.07 l -14.67,-0.095 c -19.552,-0.037 -39.123,0.438 -58.59,2.238 -9.724,0.952 -19.433,2.159 -29.03,4.01 -4.793,0.952 -9.558,2.051 -14.255,3.403 -4.683,1.395 -9.308,3.007 -13.762,5.036 4.422,-2.096 9.029,-3.781 13.699,-5.247 4.685,-1.424 9.443,-2.597 14.229,-3.623 9.587,-2.007 19.303,-3.372 29.046,-4.337 19.495,-1.902 39.09,-2.481 58.661,-2.546 l 14.68,0.022 c 4.879,-0.012 9.809,0.119 14.618,-0.145 4.696,-0.646 9.293,-2.437 13.586,-4.637 4.319,-2.208 8.454,-4.799 12.574,-7.432 8.215,-5.291 16.579,-10.465 25.351,-14.883 8.768,-4.423 17.943,-8.028 27.343,-10.851 l 1.156,-0.348 -0.478,1.12 c -0.549,1.28 -0.974,2.684 -1.171,4.064 -0.187,1.37 -0.139,2.83 0.564,3.871 0.684,1.061 2.08,1.427 3.446,1.447 1.34,0.012 2.709,-0.259 4.053,-0.607 2.427,-2.797 5.031,-5.392 7.837,-7.793 2.857,-2.414 5.908,-4.668 9.371,-6.233 1.728,-0.768 3.576,-1.351 5.507,-1.502 1.921,-0.128 3.949,0.308 5.595,1.318 0.832,0.484 1.673,1.136 2.125,2.118 0.484,0.982 0.314,2.119 -0.003,3.026 -0.325,0.923 -0.795,1.752 -1.105,2.567 -0.148,0.405 -0.238,0.813 -0.151,1.107 0.073,0.292 0.366,0.514 0.733,0.682 1.592,0.581 3.532,0.544 5.349,0.538 0.922,-0.024 1.846,-0.057 2.771,-0.115 0.936,-0.034 1.713,-0.248 2.524,-0.651 1.581,-0.829 2.968,-2.099 4.425,-3.25 1.441,-1.182 2.943,-2.323 4.571,-3.271 3.236,-1.926 6.942,-3.074 10.693,-3.271 3.757,-0.225 7.482,0.367 11.111,1.22 l 0.132,0.029 -0.008,0.14 c -0.094,1.833 -0.252,3.67 -0.065,5.484 0.092,0.902 0.302,1.794 0.721,2.593 0.466,0.764 1.171,1.369 2.018,1.701 1.705,0.647 3.61,0.542 5.414,0.333 1.826,-0.196 3.621,-0.599 5.412,-1.01 M -155.15,-32.339 c 12.842,-0.281 25.471,-2.969 37.243,-7.687 11.774,-4.736 22.66,-11.548 32.228,-19.87 9.645,-8.249 18.012,-17.958 25.214,-28.455 7.195,-10.518 13.325,-21.765 18.759,-33.4 -4.423,12.044 -9.954,23.751 -16.942,34.614 -1.82,2.664 -3.546,5.404 -5.486,7.986 l -6.019,7.611 -6.596,7.13 c -2.331,2.246 -4.734,4.425 -7.103,6.637 -2.499,2.061 -5.087,4.021 -7.629,6.035 -2.682,1.821 -5.378,3.63 -8.106,5.38 -2.863,1.527 -5.655,3.188 -8.575,4.595 l -4.445,1.976 -2.225,0.974 c -0.746,0.32 -1.53,0.543 -2.289,0.818 -12.16,4.482 -25.216,6.465 -38.029,5.656 m 4.074,48.979 c 6.414,32.82 -9.603,49.879 -13.542,51.367 -5.437,-23.17 6.118,-42.095 13.542,-51.367 m 82.711,-77.453 -1.34,-0.407 1.368,0.306 z m 4.008,1.268 -1.333,-0.429 0.085,-0.307 1.365,0.328 z m 3.991,1.313 -1.329,-0.436 0.178,-0.613 1.358,0.357 z m 3.978,1.346 -1.324,-0.455 0.261,-0.843 1.351,0.381 z m 3.953,1.404 -1.315,-0.475 0.348,-1.064 1.347,0.4 z m 3.933,1.463 -1.308,-0.495 0.439,-1.283 1.341,0.424 z m 3.905,1.526 -1.301,-0.516 0.543,-1.501 1.334,0.444 z m 3.878,1.583 -1.289,-0.535 0.649,-1.713 1.328,0.466 z m 3.854,1.64 -1.283,-0.548 0.764,-1.924 1.318,0.492 z m 3.834,1.679 -1.274,-0.565 0.866,-2.079 1.308,0.52 z m 17.27,-71.614 1.35,-0.345 0.022,0.091 z m -12.461,71.088 -1.005,2.266 -1.264,-0.587 0.97,-2.219 z m 16.563,-71.969 -0.074,-0.269 1.329,-0.422 0.101,0.359 z m -12.679,73.634 -1.113,2.404 -1.256,-0.607 1.077,-2.361 z m 16.747,-74.66 -0.145,-0.508 1.332,-0.418 0.164,0.576 z m -14.172,75.804 1.283,0.584 -1.23,2.542 -1.243,-0.629 z m 18.232,-76.855 -0.201,-0.709 1.334,-0.412 0.219,0.774 z m -14.399,78.638 1.27,0.612 -1.335,2.643 -1.235,-0.642 z m 18.463,-79.668 -0.252,-0.911 1.338,-0.404 0.266,0.979 z m -13.406,82.164 -1.437,2.73 -1.225,-0.664 1.403,-2.702 z m 17.178,-84.277 1.343,-0.392 0.313,1.182 -1.358,0.325 z m -13.424,86.225 -1.542,2.813 -1.213,-0.685 1.508,-2.785 z m 17.46,-87.391 1.348,-0.376 0.351,1.38 -1.358,0.315 z m -13.736,89.404 -1.653,2.893 -1.2,-0.705 1.615,-2.867 z m 17.788,-90.508 1.356,-0.359 0.371,1.53 -1.362,0.308 z M -136.541,19.121 c 2.061,0.297 4.043,-0.454 5.66,-1.575 1.637,-1.12 3.104,-2.485 4.416,-4.011 2.663,-3.001 4.995,-6.337 7.327,-9.673 4.697,-6.656 9.352,-13.49 15.069,-19.618 5.638,-6.139 12.505,-11.622 20.735,-14.681 4.093,-1.519 8.505,-2.314 12.884,-2.305 1.098,-0.085 2.182,0.084 3.274,0.118 l 1.635,0.109 1.612,0.248 c 2.124,0.3 4.344,0.727 6.48,1.518 2.158,0.708 4.166,1.866 6.073,3.097 1.836,1.335 3.569,2.805 5.039,4.444 2.998,3.25 5.285,6.803 7.507,10.235 2.193,3.446 4.355,6.784 6.812,9.847 2.46,3.051 5.179,5.85 8.249,8.253 3.064,2.411 6.494,4.36 10.088,6.007 3.593,1.655 7.384,2.97 11.285,3.943 7.777,2.087 15.896,3.082 24.052,3.748 -8.171,0.579 -16.44,0.327 -24.64,-1.06 -8.162,-1.401 -16.339,-4.195 -23.381,-9.119 -3.52,-2.435 -6.684,-5.394 -9.429,-8.635 -2.766,-3.226 -5.16,-6.687 -7.462,-10.059 -2.306,-3.354 -4.48,-6.702 -7.082,-9.421 -1.273,-1.397 -2.696,-2.55 -4.167,-3.611 -1.532,-0.949 -3.1,-1.847 -4.837,-2.398 -1.69,-0.653 -3.503,-1.025 -5.414,-1.315 l -1.413,-0.237 -1.421,-0.106 c -0.947,-0.034 -1.898,-0.209 -2.842,-0.135 -3.797,-0.073 -7.549,0.631 -11.151,1.829 -7.258,2.384 -13.637,7.224 -19.366,12.726 -5.711,5.58 -10.783,11.94 -16.016,18.245 -2.671,3.112 -5.299,6.305 -8.406,9.097 -1.526,1.409 -3.23,2.682 -5.094,3.65 -1.86,0.95 -4.079,1.43 -6.076,0.845 m 111.053,-5.832 c -1.155,4.275 -1.361,8.697 -0.713,13.003 0.58,4.311 1.778,8.514 3.283,12.59 3.073,8.141 7.374,15.804 12.336,22.976 2.457,3.609 5.124,7.075 7.948,10.41 2.794,3.362 5.796,6.546 8.893,9.635 6.258,6.103 13.046,11.744 20.697,16.196 C 18.801,94.62 11.382,89.446 4.763,83.497 -1.875,77.545 -7.799,70.792 -12.885,63.451 c -5.03,-7.368 -9.349,-15.306 -12.091,-23.858 -1.372,-4.265 -2.319,-8.692 -2.586,-13.176 -0.206,-4.469 0.314,-9.052 2.074,-13.128 m 23.78,-48.281 -1.763,2.97 -1.188,-0.725 1.725,-2.945 z m 18.17,-93.643 1.356,-0.343 0.39,1.677 -1.362,0.293 z m -15.73,95.06 1.212,0.723 -1.871,3.037 -1.178,-0.737 z m 19.808,-96.08 1.363,-0.329 0.405,1.831 -1.367,0.277 z m -16.188,98.273 1.197,0.743 -1.954,3.071 -1.171,-0.754 z m 20.279,-99.24 1.367,-0.308 0.412,1.951 -1.369,0.271 z m -16.698,101.49 1.188,0.759 -2.041,3.106 -1.158,-0.772 z m 20.805,-102.402 1.371,-0.295 0.412,2.061 -1.372,0.258 z m -17.255,104.698 1.175,0.772 -2.117,3.145 -1.15,-0.787 z m 21.373,-105.567 1.371,-0.28 0.41,2.172 -1.37,0.242 z m -17.855,107.897 1.167,0.782 -2.179,3.191 -1.149,-0.8 z m 21.981,-108.721 1.377,-0.266 0.403,2.283 -1.374,0.229 z m -18.486,111.062 1.161,0.774 -2.212,3.261 -1.156,-0.802 z m 22.625,-111.837 1.381,-0.242 0.393,2.368 -1.376,0.221 z M 30.635,20.161 C 25.341,17.087 20.11,13.908 14.951,10.618 12.372,8.969 9.815,7.29 7.293,5.558 7.018,5.365 6.74,5.171 6.462,4.977 6.391,5.095 6.322,5.216 6.238,5.326 5.318,6.528 3.678,7.024 1.617,6.721 -0.276,6.434 -2.379,5.494 -4.257,4.057 -6.133,2.622 -7.592,0.854 -8.364,-0.918 c -0.831,-1.908 -0.782,-3.622 0.138,-4.825 1.034,-1.351 2.958,-1.761 5.167,-1.299 1.699,0.353 3.567,1.221 5.329,2.569 1.875,1.437 3.332,3.203 4.105,4.976 0.697,1.599 0.766,3.058 0.232,4.196 0.294,0.188 0.586,0.378 0.879,0.567 2.582,1.631 5.198,3.209 7.829,4.755 5.273,3.083 10.609,6.055 16.001,8.917 10.779,5.732 21.752,11.094 32.922,15.95 0.016,0.007 0.039,0.017 0.055,0.024 0.697,0.337 0.991,1.173 0.655,1.87 -0.336,0.697 -1.172,0.991 -1.869,0.655 C 52.017,32.118 41.217,26.319 30.635,20.161 m 33.731,6.304 C 61.766,20.575 58.965,14.761 56.205,8.926 54.36,4.982 52.487,1.037 50.804,-2.983 48.37,-3.067 45.729,-4.294 43.7,-6.535 c -3.429,-3.792 -3.814,-9.047 -0.862,-11.718 1.539,-1.392 3.686,-1.808 5.873,-1.353 2.011,0.42 4.057,1.575 5.698,3.391 3.429,3.79 3.815,9.047 0.863,11.715 -1.145,1.037 -2.628,1.525 -4.213,1.523 1.812,3.916 3.804,7.751 5.773,11.592 2.97,5.728 5.979,11.442 8.806,17.26 2.82,5.82 5.513,11.725 7.634,17.902 1.051,3.089 1.962,6.248 2.536,9.521 0.563,3.262 0.761,6.698 -0.011,10.156 -0.003,0.015 -0.01,0.035 -0.013,0.05 -0.197,0.748 -0.962,1.197 -1.712,1 -0.746,-0.196 -1.195,-0.962 -0.999,-1.712 l 0.015,-0.053 c 0.742,-2.833 0.727,-5.975 0.296,-9.07 -0.43,-3.104 -1.196,-6.196 -2.113,-9.248 -1.85,-6.109 -4.31,-12.068 -6.905,-17.956 m 35.423,-163.122 -0.016,-2.717 1.405,-0.003 0.005,2.711 z m -14.794,87.295 -1.258,0.614 -1.665,-3.492 1.273,-0.59 z m -5.465,-1.687 1.696,3.531 -1.253,0.618 -1.713,-3.551 z m 16.027,-88.285 1.404,-0.02 0.04,2.733 -1.394,0.027 z m -19.836,90.083 1.745,3.592 -1.251,0.622 -1.761,-3.61 z m 15.621,-89.991 1.406,-0.037 0.07,2.755 -1.391,0.042 z m -20.678,92.436 1.262,-0.616 1.781,3.623 -1.251,0.623 z m 12.41,-89.303 -0.15,-2.795 1.401,-0.072 0.14,2.793 z m -16.863,96.069 -1.243,0.634 -1.853,-3.654 1.256,-0.63 z m -3.732,1.908 -1.24,0.641 -1.883,-3.666 1.252,-0.636 z m 16.24,-100.508 1.401,-0.093 0.172,2.779 -1.391,0.085 z m -21.865,98.768 1.907,3.67 -1.235,0.648 -1.92,-3.673 z m 17.666,-98.456 1.401,-0.109 0.202,2.753 -1.388,0.103 z m -22.651,101.056 1.243,-0.655 1.946,3.68 -1.231,0.656 z m 14.535,-97.585 -0.273,-2.699 1.395,-0.141 0.263,2.706 z m -18.702,104.596 -1.221,0.672 -2.035,-3.658 1.23,-0.686 z m -3.654,2.028 -1.211,0.685 -2.068,-3.611 1.223,-0.701 z m 17.896,-108.866 1.393,-0.156 0.292,2.681 -1.383,0.149 z m -23.613,107.361 2.093,3.576 -1.197,0.701 -2.11,-3.557 z m 19.433,-106.84 1.391,-0.182 0.319,2.644 -1.387,0.16 z m -24.271,109.77 1.204,-0.745 2.146,3.515 -1.182,0.723 z m 16.294,-106.09 -0.363,-2.485 1.387,-0.213 0.359,2.508 z m -19.904,113.34 -1.113,0.787 -2.383,-3.286 1.166,-0.837 z m -5.801,-0.741 2.528,3.158 -1.026,0.844 -2.633,-3.061 z m -2.106,0.43 1.158,0.734 -2.152,3.388 -1.195,-0.787 z m 23.291,-114.846 1.384,-0.227 0.376,2.437 -1.379,0.206 z m 8.667,1.264 -0.345,-2.552 1.39,-0.197 0.339,2.575 z m -20.615,111.607 -1.157,0.752 -2.25,-3.412 1.187,-0.78 z m 37.247,-113.4 -0.244,-2.723 1.399,-0.125 0.232,2.731 z m -19.195,102.979 -1.225,0.666 -2.001,-3.686 1.24,-0.665 z m 35.878,-104.054 -0.117,-2.782 1.403,-0.052 0.106,2.775 z m -17.295,94.391 -1.248,0.626 -1.819,-3.641 1.257,-0.622 z m 34.02,-94.741 0.014,-2.694 1.406,0.013 -0.027,2.689 z m -15.204,85.48 -1.259,0.607 -1.619,-3.428 1.273,-0.586 z m 19.386,-85.446 0.05,-2.66 1.405,0.039 -0.06,2.638 z m -15.602,83.631 -1.264,0.604 -1.573,-3.366 1.277,-0.582 z m 9.974,-8.492 1.408,3.107 -1.266,0.596 -1.429,-3.141 z m 14.106,-77.474 1.396,0.074 -0.117,2.503 -1.389,-0.05 z m -17.963,79.161 1.472,3.217 -1.266,0.594 -1.488,-3.239 z m -2.326,5.004 -1.265,0.6 -1.532,-3.304 1.28,-0.577 z m 16.075,-84.354 1.405,0.057 -0.091,2.571 -1.393,-0.036 z m 8.282,2.887 0.136,-2.457 1.398,0.091 -0.146,2.437 z m -12.965,76.1 -1.269,0.594 -1.366,-3.035 1.291,-0.557 z M 95.951,14.79 c -0.009,0.028 -0.019,0.059 -0.027,0.085 -0.261,0.73 -1.065,1.11 -1.793,0.849 -0.73,-0.259 -1.109,-1.062 -0.848,-1.79 l 0.007,-0.02 c 1.229,-3.444 1.002,-7.463 0.346,-11.332 -0.671,-3.901 -1.801,-7.769 -2.927,-11.639 -1.128,-3.873 -2.325,-7.757 -3.09,-11.757 -0.226,-1.207 -0.399,-2.43 -0.497,-3.659 -0.713,-0.494 -1.393,-1.084 -2.018,-1.771 -1.63,-1.806 -2.633,-3.997 -2.826,-6.169 -0.194,-2.256 0.504,-4.228 1.967,-5.549 1.461,-1.322 3.491,-1.818 5.719,-1.395 0.052,0.009 0.101,0.02 0.153,0.032 2.086,0.434 4.105,1.637 5.698,3.4 1.632,1.806 2.637,3.996 2.827,6.167 0.197,2.255 -0.5,4.227 -1.963,5.549 -2.285,2.065 -5.909,1.977 -9.018,0.08 0.164,1.065 0.385,2.122 0.643,3.167 0.979,3.889 2.384,7.666 3.74,11.471 1.349,3.809 2.717,7.638 3.652,11.657 0.897,3.989 1.493,8.302 0.255,12.624 m 28.926,-150.836 0.163,-2.391 1.397,0.111 -0.172,2.368 z m -13.332,74.106 -1.271,0.588 -1.302,-2.925 1.291,-0.551 z m 3.815,-1.753 -1.273,0.582 -1.242,-2.816 1.291,-0.547 z m 13.877,-74.385 1.397,0.135 -0.194,2.263 -1.39,-0.098 z m -51.856,180.5 c 2.807,0.801 5.655,1.466 8.503,1.942 1.423,0.244 2.853,0.413 4.257,0.493 1.388,0.077 2.825,0.057 3.94,-0.272 l 0.542,2.749 C 92.857,47.53 91.346,47.248 89.858,46.94 88.377,46.614 86.945,46.203 85.546,45.725 82.744,44.777 80.029,43.661 77.381,42.422 m 44.531,-112.125 1.088,2.531 -1.273,0.581 -1.116,-2.582 z m -2.732,4.27 -1.274,0.578 -1.182,-2.706 1.295,-0.542 z m 14.25,-72.222 1.393,0.15 -0.213,2.153 -1.386,-0.114 z m -26.442,116.126 c 1.609,0.464 3.047,1.125 4.46,1.815 1.404,0.701 2.753,1.471 4.071,2.271 1.319,0.793 2.594,1.646 3.867,2.492 1.297,0.832 2.463,1.743 3.982,2.381 -0.786,0.291 -1.699,0.283 -2.521,0.178 -0.838,-0.117 -1.642,-0.32 -2.425,-0.576 -1.554,-0.527 -2.993,-1.257 -4.364,-2.083 -1.364,-0.836 -2.644,-1.788 -3.842,-2.847 -1.186,-1.075 -2.311,-2.227 -3.228,-3.631 m 30.399,-113.574 0.223,-2.077 1.392,0.169 -0.227,2.041 z m -11.572,63.826 1.011,2.373 -1.277,0.575 -1.036,-2.426 z m 15.733,-63.407 0.237,-1.968 1.391,0.188 -0.239,1.93 z m -10.891,64.068 -1.277,0.569 -0.959,-2.273 1.305,-0.516 z m 15.051,-63.605 0.246,-1.84 1.386,0.213 -0.246,1.789 z m -11.209,61.909 -1.281,0.563 -0.88,-2.116 1.305,-0.512 z m 3.847,-1.682 -1.283,0.562 -0.801,-1.96 1.312,-0.496 z m 11.766,-61.408 1.384,0.232 -0.247,1.635 -1.384,-0.18 z m -7.919,59.726 -1.285,0.559 -0.702,-1.751 1.316,-0.485 z m 12.07,-59.012 1.38,0.25 -0.246,1.481 -1.38,-0.198 z m -9.5,57.907 -0.602,-1.532 1.321,-0.474 0.571,1.457 z M 132.872,3.645 c -0.186,1.299 -0.539,2.589 -0.805,3.89 -0.345,1.288 -0.884,2.552 -1.329,3.832 -0.018,0.05 -0.04,0.106 -0.065,0.153 -0.337,0.698 -1.18,0.989 -1.877,0.65 -0.698,-0.338 -0.99,-1.18 -0.651,-1.878 l 0.07,-0.145 c 2.085,-4.293 2.837,-9.384 3.201,-14.386 0.32,-5.041 0.241,-10.136 0.013,-15.225 -0.229,-5.095 -0.664,-10.186 -1.075,-15.284 -0.192,-2.394 -0.387,-4.791 -0.53,-7.192 -1.914,-0.502 -3.72,-1.66 -5.18,-3.278 -1.635,-1.805 -2.638,-3.996 -2.827,-6.167 -0.197,-2.256 0.499,-4.227 1.962,-5.549 1.541,-1.394 3.69,-1.81 5.878,-1.355 2.011,0.42 4.055,1.576 5.693,3.391 3.43,3.791 3.818,9.047 0.865,11.718 -1.462,1.321 -3.495,1.818 -5.72,1.394 -0.096,-0.018 -0.191,-0.045 -0.288,-0.066 0.25,2.346 0.548,4.689 0.844,7.032 0.642,5.072 1.312,10.147 1.776,15.258 0.462,5.107 0.782,10.243 0.689,15.42 l -0.192,3.889 c -0.121,1.298 -0.303,2.596 -0.452,3.898 m 25.29,-136.184 0.24,-1.383 1.374,0.277 -0.233,1.313 z m -8.707,52.348 0.469,1.24 -1.291,0.536 -0.505,-1.314 z m -32.662,99.166 c 2.335,0.874 4.734,1.575 7.132,2.042 1.199,0.224 2.403,0.365 3.555,0.371 1.135,0.022 2.287,-0.208 2.839,-0.66 l 1.404,2.425 c -1.664,0.743 -3.134,0.555 -4.443,0.327 -1.32,-0.258 -2.553,-0.654 -3.744,-1.118 -2.369,-0.945 -4.606,-2.091 -6.743,-3.387 m 45.514,-150.874 0.217,-1.172 1.373,0.297 -0.211,1.101 z m -8.867,50.349 0.374,1.021 -1.299,0.522 -0.405,-1.096 z m -14.165,76.768 c 1.956,0.472 3.776,1.153 5.558,1.896 1.779,0.742 3.522,1.542 5.221,2.413 1.708,0.855 3.371,1.783 5.025,2.733 1.673,0.928 3.255,1.93 5.032,2.846 -2.028,0.228 -4.038,-0.269 -5.905,-0.841 -1.877,-0.603 -3.687,-1.355 -5.421,-2.24 -1.734,-0.884 -3.4,-1.891 -5.002,-3.002 -1.6,-1.113 -3.136,-2.331 -4.508,-3.805 m 27.169,-126.419 0.193,-0.964 1.369,0.314 -0.185,0.894 z m -8.718,49.153 -1.309,0.497 -0.306,-0.873 1.337,-0.426 z m 3.764,-2.001 0.177,0.562 -1.317,0.47 -0.212,-0.651 z m 9.082,-46.399 0.163,-0.757 1.364,0.332 -0.152,0.686 z m -1.622,106.551 c -3.813,-1.839 -7.5,-3.909 -11.003,-6.248 -3.51,-2.324 -6.879,-4.86 -9.99,-7.71 3.768,1.895 7.426,3.894 11.101,5.837 3.275,1.711 6.54,3.414 9.849,4.996 -0.107,-1.055 -0.223,-2.106 -0.315,-3.165 -0.281,-3.85 -0.513,-7.739 -0.215,-11.655 0.292,-3.869 0.97,-7.93 3.035,-11.279 -0.968,3.768 -0.962,7.538 -0.857,11.317 0.15,3.779 0.494,7.573 0.828,11.387 0.115,1.569 0.237,3.142 0.343,4.72 1.344,0.617 2.693,1.214 4.056,1.772 1.888,0.813 3.816,1.5 5.753,2.147 3.89,1.202 7.898,2.183 12.095,1.671 -1.94,0.864 -4.124,1.149 -6.268,1.175 -2.154,-0.007 -4.3,-0.278 -6.389,-0.734 -3.135,-0.666 -6.144,-1.71 -9.069,-2.933 0.056,1.242 0.099,2.488 0.099,3.737 0.008,1.945 -0.073,3.903 -0.324,5.856 -0.252,1.938 -0.731,3.927 -1.691,5.622 0.374,-1.921 0.444,-3.782 0.317,-5.685 -0.076,-1.888 -0.293,-3.78 -0.487,-5.673 -0.192,-1.667 -0.386,-3.344 -0.574,-5.021 -0.099,-0.046 -0.197,-0.089 -0.294,-0.134 m -3.356,-61.143 0.062,0.261 -1.34,0.399 -0.098,-0.36 z m 9.099,-44.601 0.126,-0.55 1.358,0.351 -0.112,0.481 z m 26.363,107.8 c -2.19,-1.828 -4.155,-3.849 -6.014,-5.939 -3.719,-4.189 -7.008,-8.685 -10.097,-13.294 -3.072,-4.623 -5.946,-9.365 -8.58,-14.24 -1.134,-2.1 -2.216,-4.231 -3.242,-6.386 -0.26,-0.025 -0.519,-0.058 -0.782,-0.109 -2.077,-0.442 -4.22,-1.626 -5.852,-3.433 -1.635,-1.805 -2.637,-3.995 -2.826,-6.168 -0.197,-2.256 0.5,-4.228 1.963,-5.549 1.54,-1.392 3.688,-1.811 5.876,-1.354 2.012,0.418 4.056,1.576 5.694,3.389 1.635,1.805 2.638,3.997 2.826,6.167 0.199,2.259 -0.498,4.228 -1.961,5.551 -1.185,1.071 -2.743,1.591 -4.475,1.528 1.08,2.032 2.21,4.041 3.389,6.019 2.826,4.735 5.88,9.331 9.12,13.782 3.251,4.437 6.693,8.744 10.487,12.666 1.897,1.957 3.879,3.827 6.005,5.455 2.115,1.61 4.423,3.013 6.767,3.618 l 0.07,0.02 c 0.017,0.004 0.037,0.009 0.055,0.015 0.74,0.227 1.157,1.011 0.929,1.75 -0.227,0.741 -1.012,1.156 -1.751,0.931 -2.992,-0.92 -5.403,-2.614 -7.601,-4.419 m 15.752,-40.089 c -5.82,-3.856 -12.372,-6.65 -19.04,-9.053 -6.688,-2.396 -13.567,-4.333 -20.505,-6.202 7.15,0.721 14.247,2.078 21.182,4.121 3.489,0.955 6.875,2.271 10.242,3.643 3.335,1.45 6.581,3.158 9.667,5.156 3.046,2.046 5.949,4.412 8.344,7.302 1.219,1.424 2.219,3.044 3.107,4.713 0.827,1.709 1.447,3.528 1.754,5.416 0.268,1.891 0.273,3.817 -0.067,5.682 -0.361,1.863 -1.04,3.631 -1.917,5.263 -1.812,3.254 -4.477,5.874 -7.461,7.862 2.601,-2.468 4.876,-5.267 6.234,-8.465 0.671,-1.591 1.158,-3.246 1.336,-4.93 0.154,-1.686 0.078,-3.372 -0.264,-5.012 -0.379,-1.635 -1.018,-3.192 -1.789,-4.687 -0.85,-1.457 -1.79,-2.875 -2.951,-4.133 -2.246,-2.572 -4.953,-4.781 -7.872,-6.676 m 18.209,5.085 -0.796,-1.094 1.173,-0.891 0.828,1.174 z m -4.724,25.406 1.038,-0.937 0.085,0.097 z m 6.109,-23.082 1.265,-0.635 0.595,1.319 -1.288,0.536 z m -3.134,20.137 0.884,-1.066 0.345,0.288 -0.972,1.02 z m -0.701,-27.69 0.991,1.033 -1.108,1.031 -0.958,-0.97 z m -3.198,-2.842 1.097,0.906 -1.012,1.201 -1.066,-0.855 z m -3.457,-2.497 1.177,0.796 -0.925,1.341 -1.146,-0.763 z m -3.663,-2.157 1.233,0.688 -0.804,1.382 -1.195,-0.689 z m -3.791,-1.913 1.273,0.612 -0.688,1.379 -1.239,-0.615 z m -3.878,-1.697 1.301,0.544 -0.593,1.361 -1.271,-0.554 z m -3.946,-1.513 1.319,0.483 -0.512,1.332 -1.293,-0.497 z m -4.009,-1.315 1.344,0.415 -0.428,1.253 -1.311,-0.467 z m -4.058,-1.159 1.357,0.371 -0.333,1.099 -1.327,-0.425 z m -4.087,-1.031 1.366,0.33 -0.254,0.937 -1.34,-0.386 z m -4.117,-0.895 1.375,0.277 -0.18,0.753 -1.346,-0.369 z m -2.755,-0.517 -0.102,0.471 -1.358,-0.337 0.078,-0.379 z m -4.151,-0.695 -0.033,0.172 -1.36,-0.325 0.007,-0.043 z m -4.534,-47.645 0.927,0.263 -0.94,-0.221 z m -4.037,-1.157 1.343,0.378 -0.054,0.225 -1.367,-0.288 z m -9.825,43.774 c -0.222,-0.035 -0.451,-0.03 -0.673,-0.015 l -0.003,-0.05 c 0.226,10e-4 0.458,0.011 0.676,0.065 m 25.008,-72.329 0.112,-0.693 -0.08,0.696 z m -0.219,4.247 -0.012,-1.422 h 0.157 l 0.073,1.408 z m 0.529,4.232 -0.253,-1.4 0.318,-0.056 0.297,1.375 z m 1.162,4.114 -0.449,-1.354 0.44,-0.144 0.487,1.319 z m 1.676,3.939 -0.61,-1.292 0.547,-0.257 0.641,1.251 z m 2.087,3.737 -0.737,-1.221 0.638,-0.386 0.765,1.178 z m 2.438,3.521 -0.846,-1.149 0.694,-0.509 0.857,1.113 z m 2.717,3.31 -0.932,-1.08 0.718,-0.617 0.938,1.045 z m 2.941,3.11 -1.002,-1.014 0.735,-0.724 1.009,0.977 z m 3.139,2.916 -1.066,-0.951 0.743,-0.835 1.068,0.913 z m 3.305,2.72 -1.119,-0.885 0.748,-0.945 1.119,0.847 z m 3.458,2.528 -1.168,-0.82 0.742,-1.057 1.164,0.783 z m 3.599,2.327 -1.217,-0.749 0.728,-1.168 1.204,0.722 z m 3.738,2.105 -1.259,-0.678 0.677,-1.239 1.238,0.656 z m 3.851,1.887 -1.298,-0.604 0.619,-1.302 1.275,0.585 z m 3.903,1.702 -1.297,-0.563 0.581,-1.348 1.304,0.557 z m 3.872,1.725 -1.288,-0.58 0.605,-1.366 1.3,0.575 z m 3.851,1.772 -1.28,-0.596 0.634,-1.382 1.29,0.591 z m 3.825,1.825 -1.273,-0.615 0.665,-1.394 1.282,0.607 z m 3.796,1.879 -1.262,-0.632 0.697,-1.411 1.275,0.628 z m 3.77,1.936 -1.252,-0.65 0.73,-1.423 1.263,0.646 z m 3.732,1.998 -1.239,-0.673 0.766,-1.433 1.252,0.67 z m 3.706,2.047 -1.23,-0.686 0.795,-1.427 1.238,0.698 z m 3.673,2.108 -1.22,-0.709 0.812,-1.39 1.223,0.723 z m 3.627,2.182 -1.203,-0.735 0.825,-1.352 1.208,0.749 z m 3.578,2.259 -1.185,-0.76 0.839,-1.311 1.191,0.776 z m 3.524,2.342 -1.169,-0.79 0.857,-1.269 1.173,0.807 z m 3.461,2.428 -1.146,-0.819 0.874,-1.224 1.151,0.835 z m 3.394,2.524 -1.122,-0.852 0.89,-1.177 1.128,0.867 z m 3.316,2.623 -1.097,-0.886 0.909,-1.131 1.103,0.904 z m 3.227,2.725 -1.066,-0.919 0.928,-1.082 1.072,0.94 z m 3.126,2.839 -1.029,-0.96 0.947,-1.026 1.039,0.977 z m 3.033,2.936 -0.997,-0.992 0.945,-0.947 0.993,1.025 z m 2.907,3.061 -0.955,-1.035 0.928,-0.85 0.946,1.066 z m 2.762,3.189 -0.902,-1.078 0.902,-0.756 0.897,1.11 z m 2.599,3.324 -0.848,-1.122 0.878,-0.659 0.838,1.153 z m -53.701,-33.807 c -7.195,-4.12 -14.575,-7.976 -22.254,-11.029 -1.923,-0.79 -3.859,-1.382 -5.839,-2.08 l -2.987,-1.136 c -0.982,-0.405 -1.885,-0.976 -2.83,-1.458 l -1.401,-0.756 -1.306,-0.905 c -0.859,-0.617 -1.763,-1.178 -2.583,-1.843 -1.585,-1.391 -3.247,-2.705 -4.654,-4.274 -5.905,-6.021 -10.361,-13.288 -13.642,-20.976 -1.53,-3.89 -2.907,-7.865 -3.62,-11.992 -0.75,-4.098 -1.108,-8.325 -0.426,-12.449 -0.504,4.148 0.002,8.32 0.851,12.362 0.825,4.067 2.308,7.965 3.932,11.762 3.393,7.536 7.917,14.63 13.797,20.404 1.404,1.513 3.045,2.757 4.607,4.083 0.809,0.626 1.68,1.168 2.515,1.757 l 1.265,0.868 1.351,0.719 c 0.909,0.454 1.78,1 2.723,1.382 l 2.854,1.067 c 1.948,0.673 3.999,1.288 5.934,2.074 7.815,3.053 15.257,6.888 22.527,10.995 7.233,4.174 14.276,8.677 21.05,13.569 6.744,4.916 13.338,10.11 19.155,16.159 2.888,3.031 5.643,6.238 7.802,9.885 1.092,1.814 1.898,3.809 2.552,5.801 0.635,2.008 1.093,4.118 1.019,6.277 -0.057,2.141 -0.935,4.366 -2.639,5.743 -1.679,1.395 -3.776,2.018 -5.825,2.432 -4.162,0.656 -8.36,0.345 -12.486,-0.152 4.141,0.323 8.342,0.474 12.407,-0.276 1.993,-0.462 3.991,-1.14 5.494,-2.472 1.524,-1.314 2.24,-3.308 2.242,-5.303 0.024,-2.006 -0.436,-4.024 -1.092,-5.961 -0.68,-1.947 -1.476,-3.82 -2.566,-5.558 -2.15,-3.49 -4.913,-6.596 -7.812,-9.531 -5.872,-5.821 -12.378,-11.009 -19.125,-15.829 -6.751,-4.82 -13.785,-9.249 -20.99,-13.359 m -9.612,46.594 1.261,-0.305 0.253,1.427 -1.225,0.189 z m -2.139,13.033 0.667,-1.201 0.644,0.357 -0.772,1.192 z m 2.609,-7.692 0.059,-1.348 1.121,0.025 -0.122,1.438 z m -0.029,4.285 -0.832,-0.309 0.398,-1.303 0.91,0.26 z m 57.477,3.41 0.689,-0.131 0.006,0.035 z m 7.806,-22.362 -0.781,-1.168 0.846,-0.566 0.77,1.199 z m -4.461,21.324 c 0.424,-0.202 0.836,-0.426 1.234,-0.673 l 0.119,0.206 c -0.415,0.231 -0.846,0.439 -1.284,0.622 z m 5.9,-18.942 0.835,-0.419 0.584,1.334 -0.837,0.334 z m -2.449,16.563 0.959,-1.015 0.296,0.262 -1.022,1.007 z m 3.849,-12.689 0.824,-0.165 0.198,1.442 -0.797,0.08 z m 0.085,5.48 0.189,-1.37 0.696,0.072 -0.249,1.431 z m -1.399,3.901 0.603,-1.252 0.501,0.22 -0.671,1.279 z m 54.494,-51.02 c -3.161,-16.878 -14.866,-29.096 -23.586,-37.89 -8.723,-8.795 -24.27,-18.594 -24.27,-18.594 0,0 -4.142,2.713 -5.974,2.333 -1.826,-0.381 -1.16,-9.306 -1.16,-9.306 l -15.351,-9.88 c 0,0 -7.813,3.144 -9.496,2.076 -1.687,-1.066 -0.895,-8.295 -1.21,-9.076 -0.313,-0.781 -19.6,-11.242 -20.972,-11.528 -1.371,-0.284 -6.182,5.629 -6.182,5.629 0,0 -7.351,-2.486 -8.675,-3.001 -1.325,-0.514 -1.439,-9.125 -1.439,-9.125 0,0 -20.191,-6.116 -21.201,-5.85 -1.008,0.268 -5.029,4.676 -5.029,4.676 0,0 -3.477,-0.485 -5.161,-1.553 -1.686,-1.067 -3.42,-7.63 -4.333,-7.819 -0.915,-0.191 -24.698,-3.956 -26.344,-4.061 -1.648,-0.103 -8.07,6.666 -8.07,6.666 0,0 -3.532,0.935 -5.361,0.553 -1.828,-0.382 -2.161,-4.507 -4.382,-7.592 -6.17,-1.285 -27.59,0.211 -31.105,1.625 -3.515,1.415 -3.415,6.086 -3.415,6.086 0,0 -3.371,0.729 -5.085,0.372 -1.717,-0.358 0.457,-5.629 -1.531,-6.4 -1.985,-0.771 -23.443,2.626 -26.544,3.769 -3.099,1.141 -4.886,9.713 -4.886,9.713 l -2.402,-0.498 c 0,0 -0.87,-2.687 -3.586,-6.83 -16.442,3.369 -22.035,12.459 -29.692,19.45 -18.498,10.934 -47.757,10.557 -50.301,10.744 -2.542,0.186 0.116,-5.701 0.116,-5.701 0,0 -32.686,-9.673 -35.431,-10.247 -2.742,-0.573 -4.157,4.5 -5.544,6 -1.385,1.501 -17.757,-4.058 -18.843,-5.716 -1.085,-1.657 -19.548,-0.618 -19.548,-0.618 0,0 -3.619,0.201 -5.915,6.639 -6.526,2.695 -14.25,-4.878 -14.25,-4.878 0,0 -16.916,2.198 -18.933,2.732 -2.021,0.534 -4.508,7.887 -4.936,9.942 -0.429,2.059 -8.458,-1.762 -11.428,-2.381 -2.973,-0.62 -8.268,3.048 -10.659,4.219 -2.39,1.172 -4.953,12.323 -4.953,12.323 l -3.784,2.075 c -6.903,8.579 -6.209,52.729 1.648,57.945 -5.043,3.598 -2.166,13.282 1.399,13.885 -4.481,12.961 -13.021,56.14 -6.464,86.731 -11.174,13.541 -32.396,47.727 -17.395,68.935 6,5.543 16.128,6.722 16.128,6.722 0,0 21.708,-18.806 16.715,-48.292 7.031,4.995 14.833,6.626 22.344,16.787 10.219,13.828 32.164,2.205 41.766,-12.968 9.601,-15.171 25.967,-14.441 38.646,-5.182 -0.5,2.401 11.943,46.257 49.887,71.338 C 33.989,113.106 41.286,86 41.286,86 c 0,0 14.44,-7.484 19.401,-15.275 22.888,1.192 19.584,-15 19.584,-15 l 6.444,-5.733 c 1.143,0.239 5.555,1.944 8.575,0.904 1.48,-0.511 5.87,-7.274 4.746,-9.894 3.991,-0.837 5.166,-7.621 5.166,-7.621 0,0 7.808,-5.416 14.466,-7.606 11.372,3.801 15.954,-2.161 16.478,-4.676 0.523,-2.513 7.916,-10.514 18.107,-13.636 15.905,3.792 13.049,-5.391 13.049,-5.391 0,0 29.742,-15.386 37.213,-17.763 8.629,3.23 10.237,-4.486 10.237,-4.486 l -1.177,-2.928 c 0,0 1.8,-1.771 1.728,-1.429 8.628,3.23 32.574,-10.383 42.975,-13.94 10.403,-3.556 18.13,0.559 18.13,0.559 l 1.644,0.7 c 48.016,8.22 66.324,-21.833 66.324,-21.833 l 6.212,-3.475 c 0,0 6.029,-15.202 9.014,-32.944 M 48.527,-8.85 c 0.485,1.399 1.014,2.78 1.564,4.153 -0.116,-0.018 -0.231,-0.014 -0.35,-0.04 -1.673,-0.349 -3.413,-1.343 -4.822,-2.9 -2.819,-3.12 -3.258,-7.336 -0.981,-9.397 2.282,-2.06 6.431,-1.198 9.252,1.92 2.821,3.12 3.26,7.334 0.981,9.396 -1.019,0.921 -2.418,1.228 -3.897,1.041 -0.611,-1.377 -1.2,-2.765 -1.747,-4.173 m 81.471,-41.209 c -0.472,2.084 -0.367,4.226 -0.265,6.348 -1.409,-0.489 -2.756,-1.376 -3.871,-2.609 -1.395,-1.541 -2.25,-3.39 -2.408,-5.208 -0.151,-1.732 0.358,-3.218 1.429,-4.186 2.28,-2.063 6.43,-1.202 9.249,1.917 2.82,3.12 3.261,7.336 0.979,9.398 -1.07,0.969 -2.601,1.324 -4.309,0.998 -0.042,-0.008 -0.084,-0.015 -0.125,-0.024 -0.216,-0.046 -0.428,-0.13 -0.644,-0.194 -0.202,-2.145 -0.416,-4.306 -0.035,-6.44 m 39.791,-20.453 c 0.451,2.442 1.465,4.726 2.477,6.984 -1.658,-0.408 -3.265,-1.385 -4.558,-2.814 -1.396,-1.545 -2.25,-3.394 -2.408,-5.211 -0.152,-1.732 0.357,-3.219 1.429,-4.187 2.281,-2.063 6.428,-1.201 9.248,1.918 1.397,1.542 2.25,3.392 2.41,5.209 0.15,1.733 -0.359,3.219 -1.43,4.187 -1.067,0.965 -2.592,1.321 -4.29,1.003 -1.141,-2.283 -2.305,-4.586 -2.878,-7.089 m -82.355,44.224 c 1.164,0.954 2.456,1.58 3.711,1.844 1.679,0.347 3.291,0.05 4.432,-0.984 1.071,-0.967 1.577,-2.455 1.426,-4.186 -0.158,-1.816 -1.014,-3.666 -2.406,-5.21 -1.397,-1.54 -3.211,-2.546 -4.941,-2.919 -1.707,-0.322 -3.24,0.032 -4.311,0.999 -1.072,0.969 -1.576,2.457 -1.427,4.189 0.158,1.818 1.015,3.668 2.405,5.209 0.231,0.254 0.48,0.467 0.723,0.688 0.002,-0.075 -0.003,-0.152 -0.001,-0.226 0.048,-2.033 0.534,-4.095 1.636,-5.797 -1.001,1.765 -1.352,3.806 -1.287,5.797 0.006,0.201 0.03,0.398 0.04,0.596"
             style="fill:#000000;fill-opacity:1;fill-rule:nonzero;stroke:none"
             id="path8494" />
        </g>
        <g
           id="g8496"
           transform="translate(384.7715,221.126)">
          <path
             d="m 0,0 0.012,-0.042 0.927,0.264 z m -2.735,-0.595 -1.368,-0.288 0.078,-0.314 1.344,0.378 z m -3.998,-1.335 -0.114,0.481 -1.372,-0.282 0.128,-0.551 z m -4.079,-1.034 -0.152,0.688 -1.374,-0.264 0.162,-0.755 z m -5.462,-1.292 1.369,0.315 -0.186,0.893 -1.376,-0.244 z m -4.111,-0.906 1.371,0.298 -0.211,1.1 -1.38,-0.226 z m -4.125,-0.851 1.375,0.279 -0.232,1.312 -1.383,-0.209 z m -3.003,0.965 -1.382,-0.197 0.245,-1.535 1.382,0.25 z m -4.148,-0.578 -1.386,-0.181 0.247,-1.684 1.386,0.229 z m -5.296,-2.525 1.386,0.213 -0.247,1.789 -1.385,-0.163 z m -4.168,-0.592 1.39,0.188 -0.24,1.93 -1.387,-0.151 z m -4.176,-0.529 1.393,0.171 -0.228,2.041 -1.388,-0.133 z m -3,1.831 -1.386,-0.117 0.205,-2.189 1.394,0.153 z m -4.17,-0.33 -1.39,-0.098 0.186,-2.3 1.398,0.136 z m -5.401,-2.756 1.398,0.111 -0.173,2.366 -1.387,-0.087 z m -4.201,-0.294 1.398,0.091 -0.146,2.437 -1.39,-0.07 z m -2.926,2.337 -1.387,-0.051 0.109,-2.525 1.397,0.074 z m -4.177,-0.137 -1.394,-0.037 0.08,-2.59 1.403,0.056 z m -4.124,-2.725 -0.059,2.638 -1.396,-0.019 0.049,-2.659 z m -5.622,-0.109 1.405,0.015 -0.027,2.688 -1.394,-0.007 z m -4.218,-0.011 1.407,-0.002 0.005,2.712 -1.393,0.008 z m -2.77,2.756 -1.394,0.024 -0.05,-2.739 1.405,-0.017 z m -4.182,0.096 -1.393,0.042 -0.084,-2.761 1.405,-0.037 z m -4.284,-2.629 0.106,2.775 -1.391,0.058 -0.118,-2.781 z m -5.611,0.248 1.401,-0.072 0.14,2.794 -1.391,0.073 z m -2.631,2.949 -1.392,0.086 -0.182,-2.772 1.401,-0.093 z m -4.17,0.272 -1.388,0.102 -0.215,-2.745 1.4,-0.111 z m -4.403,-2.408 0.234,2.732 -1.387,0.115 -0.245,-2.723 z m -5.589,0.536 1.394,-0.141 0.264,2.705 -1.386,0.134 z m -2.503,2.982 -1.382,0.149 -0.3,-2.675 1.391,-0.155 z m -4.154,0.457 -1.387,0.159 -0.323,-2.62 1.391,-0.183 z m -4.495,-2.085 0.34,2.576 -1.385,0.175 -0.344,-2.555 z m -5.555,0.818 1.387,-0.211 0.359,2.506 -1.383,0.19 z m -2.396,2.878 -1.38,0.204 -0.381,-2.413 1.383,-0.228 z m -4.135,0.629 -1.374,0.221 -0.398,-2.348 1.38,-0.242 z m -4.131,0.667 -1.372,0.227 -0.408,-2.245 1.376,-0.266 z m -4.125,0.698 -1.37,0.243 -0.41,-2.135 1.37,-0.28 z m -4.116,0.744 -1.372,0.256 -0.411,-2.023 1.371,-0.295 z m -4.111,0.787 -1.369,0.272 -0.409,-1.913 1.367,-0.31 z m -4.102,0.825 -1.367,0.279 -0.4,-1.779 1.362,-0.328 z m -4.1,0.855 -1.362,0.293 -0.383,-1.629 1.354,-0.343 z m -4.088,0.895 -1.361,0.307 -0.366,-1.478 1.353,-0.357 z m -4.08,0.935 -1.359,0.318 -0.338,-1.319 1.347,-0.377 z m -4.079,0.954 -1.36,0.325 -0.296,-1.114 1.343,-0.392 z m -4.342,0.008 0.268,0.979 -1.354,0.336 -0.252,-0.911 z m -5.351,1.637 1.334,-0.413 0.218,0.774 -1.35,0.347 z m -4.005,1.251 1.333,-0.417 0.164,0.574 -1.352,0.352 z m -3.997,1.265 1.33,-0.422 0.101,0.359 -1.356,0.333 z m -2.676,0.807 0.022,0.089 -1.373,0.255 z m 180.76,-59.668 c -0.879,-0.328 -1.635,-0.952 -2.136,-1.751 -0.453,-0.828 -0.683,-1.748 -0.79,-2.67 -0.211,-1.8 -0.091,-3.599 -0.023,-5.386 -3.574,-0.775 -7.225,-1.287 -10.864,-1.015 -3.68,0.252 -7.259,1.424 -10.382,3.346 -1.569,0.954 -3.035,2.071 -4.464,3.254 -1.449,1.155 -2.82,2.44 -4.536,3.359 -0.845,0.445 -1.893,0.719 -2.82,0.745 -0.932,0.064 -1.866,0.102 -2.802,0.132 -0.937,0.016 -1.875,0.019 -2.822,-0.041 -0.945,-0.063 -1.902,-0.156 -2.863,-0.536 -0.464,-0.202 -1.012,-0.562 -1.193,-1.192 -0.165,-0.612 0.004,-1.153 0.162,-1.615 0.349,-0.923 0.8,-1.722 1.086,-2.558 0.278,-0.827 0.383,-1.687 0.02,-2.401 -0.33,-0.726 -1.026,-1.295 -1.788,-1.726 -1.541,-0.928 -3.314,-1.291 -5.098,-1.173 -1.782,0.149 -3.533,0.706 -5.191,1.451 -3.324,1.521 -6.315,3.746 -9.112,6.138 -2.788,2.41 -5.41,5.054 -7.797,7.845 l -0.109,0.127 -0.152,0.041 c -1.445,0.387 -2.928,0.707 -4.482,0.702 -0.775,-0.014 -1.571,-0.109 -2.344,-0.385 -0.77,-0.277 -1.503,-0.801 -1.981,-1.505 -0.962,-1.445 -0.951,-3.143 -0.768,-4.635 0.159,-1.125 0.433,-2.2 0.804,-3.256 -8.934,2.799 -17.645,6.302 -25.98,10.563 -8.703,4.407 -16.928,9.665 -25.199,14.895 -4.135,2.613 -8.315,5.204 -12.72,7.428 -4.407,2.218 -9.053,4.035 -14.073,4.698 -4.962,0.244 -9.822,0.083 -14.725,0.071 l -14.668,-0.096 c -19.552,-0.038 -39.121,0.438 -58.59,2.238 -9.725,0.951 -19.433,2.159 -29.03,4.01 -4.793,0.953 -9.558,2.051 -14.254,3.403 -4.683,1.394 -9.309,3.006 -13.763,5.036 4.424,-2.096 9.03,-3.78 13.699,-5.245 4.684,-1.427 9.442,-2.6 14.23,-3.626 9.586,-2.006 19.302,-3.371 29.045,-4.337 19.496,-1.902 39.09,-2.481 58.662,-2.545 l 14.679,0.023 c 4.878,-0.014 9.81,0.118 14.62,-0.144 4.694,-0.649 9.291,-2.437 13.584,-4.638 4.319,-2.21 8.455,-4.8 12.574,-7.433 8.214,-5.29 16.579,-10.464 25.351,-14.883 8.768,-4.425 17.942,-8.028 27.343,-10.85 l 1.156,-0.349 -0.478,1.12 c -0.548,1.281 -0.975,2.683 -1.17,4.065 -0.188,1.369 -0.14,2.829 0.564,3.87 0.683,1.061 2.077,1.426 3.443,1.447 1.343,0.012 2.712,-0.259 4.054,-0.608 2.427,-2.795 5.032,-5.391 7.838,-7.791 2.857,-2.415 5.908,-4.668 9.371,-6.234 1.728,-0.767 3.575,-1.35 5.507,-1.502 1.92,-0.13 3.949,0.306 5.596,1.319 0.832,0.483 1.672,1.134 2.123,2.116 0.485,0.985 0.316,2.12 -0.002,3.027 -0.324,0.922 -0.795,1.751 -1.105,2.567 -0.148,0.404 -0.237,0.813 -0.152,1.107 0.074,0.292 0.367,0.514 0.734,0.683 1.592,0.582 3.532,0.543 5.348,0.537 0.923,-0.025 1.847,-0.056 2.772,-0.116 0.936,-0.032 1.713,-0.248 2.525,-0.65 1.58,-0.829 2.967,-2.099 4.423,-3.25 1.442,-1.183 2.945,-2.323 4.572,-3.271 3.236,-1.926 6.941,-3.075 10.692,-3.272 3.757,-0.224 7.484,0.368 11.112,1.22 l 0.133,0.03 -0.007,0.14 c -0.094,1.832 -0.254,3.671 -0.069,5.483 0.094,0.904 0.304,1.795 0.723,2.593 0.467,0.765 1.171,1.37 2.016,1.701 1.706,0.649 3.612,0.542 5.415,0.334 1.827,-0.196 3.623,-0.599 5.412,-1.011 -1.782,0.44 -3.574,0.869 -5.4,1.094 -1.808,0.234 -3.717,0.379 -5.486,-0.262 M 3.152,47.451 3.16,47.408 4.546,47.604 4.512,47.777 Z m 4.085,0.983 0.079,-0.381 1.381,0.245 -0.102,0.472 z m 5.41,1.413 -1.348,-0.369 0.153,-0.662 1.376,0.279 z m 4.035,1.13 -1.341,-0.386 0.228,-0.882 1.366,0.332 z m 3.999,1.236 -1.328,-0.426 0.305,-1.045 1.355,0.371 z m 3.95,1.356 -1.311,-0.467 0.394,-1.202 1.343,0.417 z m 3.901,1.461 -1.295,-0.497 0.486,-1.318 1.319,0.484 z m 3.845,1.603 -1.272,-0.553 0.564,-1.352 1.302,0.544 z m 3.754,1.784 -1.238,-0.616 0.654,-1.375 1.273,0.613 z m 3.636,1.993 -1.195,-0.688 0.766,-1.384 1.233,0.688 z m 3.484,2.222 -1.144,-0.761 0.893,-1.375 1.176,0.796 z m 3.293,2.469 -1.067,-0.858 0.981,-1.249 1.098,0.904 z m 2.994,2.798 -0.956,-0.972 1.075,-1.092 0.99,1.033 z m 2.946,1.18 0.829,1.174 -1.207,0.811 -0.795,-1.094 z m 2.866,4.993 -1.287,0.536 -0.573,-1.219 1.265,-0.634 z m 1.112,4.201 -1.225,0.189 -0.289,-1.311 1.261,-0.304 z m -0.985,2.873 1.121,0.021 -0.122,1.441 -1.057,-0.115 z m -0.523,4.019 0.911,0.261 -0.476,1.351 -0.832,-0.309 z m -0.834,4.176 -0.773,1.191 -0.539,-0.348 0.668,-1.202 z m -2.535,3.406 -0.972,1.021 -0.257,-0.243 0.885,-1.066 z m -3.08,2.884 -1.123,0.839 1.037,-0.937 z M 14.856,56.925 C 8.169,54.53 1.29,52.592 -5.648,50.725 c 7.15,0.72 14.247,2.08 21.182,4.123 3.49,0.952 6.875,2.268 10.242,3.639 3.335,1.451 6.58,3.159 9.665,5.158 3.05,2.045 5.95,4.412 8.345,7.303 1.219,1.422 2.221,3.042 3.108,4.71 0.827,1.71 1.449,3.53 1.754,5.417 0.268,1.891 0.274,3.818 -0.066,5.682 -0.363,1.862 -1.042,3.63 -1.919,5.263 -1.811,3.254 -4.474,5.874 -7.461,7.862 2.603,-2.468 4.876,-5.267 6.235,-8.465 0.671,-1.591 1.158,-3.246 1.338,-4.93 0.153,-1.685 0.076,-3.372 -0.266,-5.012 C 46.129,79.84 45.49,78.282 44.72,76.788 43.87,75.333 42.932,73.915 41.769,72.657 39.523,70.083 36.816,67.875 33.897,65.979 28.075,62.123 21.525,59.33 14.856,56.925 M -14.526,42.512 c 0.227,10e-4 0.457,0.01 0.678,0.064 -0.225,-0.036 -0.452,-0.03 -0.675,-0.015 z m -4.069,1.018 -0.098,-0.362 1.377,-0.299 0.061,0.26 z m -3.966,1.363 -0.212,-0.653 1.353,-0.381 0.176,0.563 z m -3.931,1.466 -0.309,-0.873 1.34,-0.427 0.275,0.801 z m -2.605,1.022 -1.298,0.519 -0.407,-1.093 1.331,-0.447 z m -3.89,1.577 -1.291,0.536 -0.504,-1.313 1.326,-0.462 z m -4.444,0.163 0.573,1.458 -1.289,0.548 -0.604,-1.53 z m -4.571,3.672 -0.704,-1.751 1.316,-0.484 0.672,1.675 z m -3.845,1.684 -0.803,-1.959 1.312,-0.496 0.773,1.895 z m -3.846,1.684 -0.88,-2.117 1.306,-0.511 0.853,2.065 z m -3.839,1.7 -0.957,-2.272 1.303,-0.517 0.932,2.221 z m -2.553,1.144 -1.275,0.576 -1.038,-2.427 1.301,-0.523 z m -3.826,1.731 -1.274,0.581 -1.114,-2.582 1.3,-0.528 z m -5.094,2.318 -1.181,-2.706 1.292,-0.542 1.163,2.671 z m -3.818,1.746 -1.244,-2.818 1.293,-0.544 1.223,2.778 z m -3.813,1.759 -1.303,-2.925 1.29,-0.554 1.285,2.89 z m -3.806,1.772 -1.365,-3.035 1.288,-0.557 1.346,2.998 z m -2.533,1.189 -1.265,0.598 -1.43,-3.144 1.288,-0.561 z m -3.794,1.795 -1.265,0.596 -1.488,-3.239 1.283,-0.571 z m -5.062,2.388 -1.531,-3.302 1.279,-0.577 1.517,3.28 z m -3.79,1.806 -1.573,-3.366 1.276,-0.583 1.559,3.345 z m -3.779,1.818 -1.619,-3.429 1.274,-0.587 1.604,3.409 z m -3.774,1.833 -1.664,-3.489 1.272,-0.594 1.65,3.471 z m -2.512,1.231 -1.253,0.616 -1.713,-3.549 1.271,-0.598 z m -3.759,1.859 -1.251,0.622 -1.762,-3.61 1.267,-0.604 z m -3.758,1.861 -1.253,0.622 -1.79,-3.63 1.261,-0.616 z m -5.002,2.497 -1.819,-3.642 1.257,-0.622 1.81,3.637 z m -3.738,1.896 -1.852,-3.654 1.255,-0.631 1.839,3.652 z m -3.73,1.914 -1.882,-3.666 1.251,-0.635 1.872,3.662 z m -2.476,1.289 -1.238,0.65 -1.918,-3.675 1.248,-0.646 z m -3.704,1.955 -1.231,0.656 -1.959,-3.681 1.244,-0.655 z m -4.911,2.648 -2.002,-3.687 1.24,-0.664 1.986,3.684 z m -3.666,2.01 -2.035,-3.657 1.229,-0.687 2.027,3.672 z m -3.644,2.042 -2.068,-3.611 1.223,-0.702 2.056,3.627 z m -2.413,1.385 -1.198,0.703 -2.11,-3.558 1.215,-0.721 z m -3.581,2.125 -1.182,0.722 -2.168,-3.493 1.204,-0.744 z m -4.682,2.943 -2.249,-3.41 1.187,-0.78 2.22,3.442 z m -3.392,2.325 -2.383,-3.289 1.167,-0.836 2.33,3.336 z m -2.158,1.627 -1.027,0.845 -2.632,-3.06 1.13,-0.942 z m -5.629,1.396 -1.195,-0.787 2.189,-3.336 1.158,0.734 z m -3.536,-2.384 -1.156,-0.802 2.206,-3.232 1.16,0.773 z m -3.457,-2.402 -1.149,-0.8 2.162,-3.174 1.166,0.781 z m -3.447,-2.387 -1.151,-0.787 2.092,-3.13 1.175,0.773 z m -3.462,-2.346 -1.158,-0.773 2.012,-3.095 1.186,0.761 z m -3.485,-2.303 -1.171,-0.754 1.927,-3.06 1.198,0.743 z m -3.522,-2.247 -1.179,-0.738 1.839,-3.023 1.211,0.724 z m -3.543,-2.207 -1.188,-0.725 1.725,-2.944 1.226,0.698 z m -3.577,-2.153 -1.201,-0.705 1.616,-2.865 1.236,0.677 z m -3.613,-2.093 -1.214,-0.685 1.507,-2.785 1.249,0.658 z m -4.875,-2.694 1.402,-2.702 1.26,0.635 -1.436,2.73 z m -1.125,-3.95 -1.334,2.643 -1.236,-0.642 1.301,-2.614 z m -3.821,-1.812 -1.229,2.543 -1.245,-0.63 1.192,-2.496 z m -4.97,0.677 -1.256,-0.608 1.077,-2.359 1.292,0.56 z m -3.774,-1.804 -1.265,-0.585 0.968,-2.222 1.302,0.54 z m -4.216,-4.383 1.31,0.518 -0.899,2.125 -1.275,-0.566 z m -3.941,-1.507 1.316,0.491 -0.799,1.981 -1.283,-0.549 z m -4.626,0.296 0.649,-1.713 1.328,0.465 -0.688,1.783 z m -3.347,-3.065 1.334,0.444 -0.576,1.572 -1.3,-0.514 z m -4.015,-1.287 1.341,0.422 -0.473,1.357 -1.308,-0.496 z m -4.38,-0.16 0.348,-1.062 1.344,0.4 -0.376,1.137 z m -3.701,-2.225 1.351,0.379 -0.288,0.916 -1.323,-0.454 z m -4.065,-1.099 1.357,0.359 -0.205,0.692 -1.331,-0.437 z m -4.089,-0.999 1.365,0.326 -0.117,0.41 -1.334,-0.43 z m -2.733,-0.634 -0.027,0.102 -1.34,-0.409 z m -17.341,1.02 c 9.645,-8.25 18.011,-17.96 25.214,-28.457 7.195,-10.517 13.326,-21.765 18.76,-33.399 -4.424,12.042 -9.953,23.749 -16.943,34.613 -1.819,2.666 -3.544,5.404 -5.486,7.986 l -6.018,7.611 -6.596,7.13 c -2.334,2.246 -4.735,4.426 -7.103,6.637 -2.5,2.06 -5.089,4.022 -7.629,6.035 -2.682,1.821 -5.379,3.63 -8.106,5.38 -2.864,1.527 -5.656,3.189 -8.576,4.595 l -4.446,1.976 -2.225,0.974 c -0.745,0.32 -1.529,0.543 -2.289,0.818 -12.159,4.482 -25.214,6.465 -38.028,5.658 12.843,-0.282 25.471,-2.971 37.244,-7.689 11.773,-4.736 22.66,-11.548 32.227,-19.868 m 59.475,86.186 c 0.583,4.311 1.781,8.513 3.286,12.59 3.073,8.142 7.374,15.804 12.337,22.976 2.454,3.609 5.124,7.076 7.948,10.41 2.793,3.362 5.793,6.547 8.892,9.635 6.258,6.104 13.046,11.744 20.697,16.197 -8.156,-3.48 -15.574,-8.654 -22.193,-14.603 -6.638,-5.953 -12.561,-12.704 -17.648,-20.046 -5.03,-7.368 -9.349,-15.306 -12.092,-23.858 -1.373,-4.264 -2.318,-8.692 -2.585,-13.176 -0.206,-4.469 0.313,-9.053 2.074,-13.128 -1.157,4.276 -1.361,8.698 -0.716,13.003 M 155.388,41.789 C 150.259,35.903 143.997,31.127 137.485,26.793 130.937,22.487 124.114,18.57 117.241,14.741 110.355,10.935 103.412,7.198 96.46,3.483 L 95.967,3.219 95.788,2.665 c -1.325,-4.14 -2.826,-8.217 -4.635,-12.154 -1.841,-3.921 -3.998,-7.686 -6.486,-11.215 -4.93,-7.098 -11.334,-13.12 -18.686,-17.717 -7.348,-4.624 -15.542,-7.863 -23.944,-10.344 -8.397,-2.556 -17.065,-4.233 -25.626,-6.342 8.69,1.462 17.402,2.846 26.003,4.966 8.572,2.173 17.044,5.199 24.742,9.801 7.708,4.554 14.483,10.765 19.705,18.076 2.61,3.658 4.865,7.557 6.792,11.601 1.812,3.885 3.327,7.893 4.61,11.968 6.767,3.689 13.571,7.306 20.249,11.183 6.847,3.95 13.661,7.995 20.165,12.559 6.493,4.54 12.719,9.666 17.716,15.913 5.037,6.22 8.225,13.769 9.75,21.491 -2.111,-7.589 -5.505,-14.858 -10.755,-20.662 M 73.955,-21.649 c -16.724,-5.022 -33.524,-9.817 -50.57,-13.517 -17.009,-3.785 -34.264,-6.679 -51.63,-7.343 -8.677,-0.294 -17.364,-0.026 -25.95,1.065 -8.589,1.064 -17.046,3.043 -25.252,5.795 -16.447,5.483 -31.839,13.881 -48.046,20.592 -16.187,6.765 -33.129,11.834 -50.4,14.934 -8.628,1.599 -17.334,2.723 -26.056,3.536 -8.737,0.817 -17.455,1.236 -26.168,1.765 -17.423,1.064 -34.856,2.101 -52.156,4.223 -8.645,1.064 -17.283,2.367 -25.675,4.673 -4.183,1.169 -8.319,2.602 -12.122,4.7 -1.89,1.058 -3.694,2.295 -5.233,3.83 -1.52,1.539 -2.753,3.409 -3.351,5.518 0.529,-2.128 1.707,-4.057 3.198,-5.665 1.505,-1.604 3.293,-2.92 5.172,-4.052 3.798,-2.224 7.941,-3.767 12.126,-5.051 8.4,-2.527 17.052,-4.047 25.701,-5.325 17.338,-2.399 34.78,-3.688 52.194,-5.014 L -217.2,2.049 c 4.361,-0.306 8.688,-0.611 13.02,-1.051 8.657,-0.852 17.284,-2.006 25.82,-3.633 17.098,-3.15 33.783,-8.238 49.793,-15.007 16.086,-6.561 31.549,-14.914 48.32,-20.424 16.722,-5.612 34.578,-7.596 52.094,-6.586 17.549,0.936 34.847,4.085 51.844,8.156 16.992,4.161 33.73,9.223 50.264,14.847 M -34.954,90.054 c 3.768,1.896 7.425,3.894 11.101,5.837 3.276,1.711 6.541,3.413 9.851,4.997 -0.109,-1.056 -0.225,-2.106 -0.317,-3.165 -0.282,-3.851 -0.512,-7.74 -0.214,-11.654 0.292,-3.871 0.97,-7.933 3.034,-11.281 -0.968,3.77 -0.963,7.537 -0.858,11.317 0.151,3.78 0.495,7.573 0.828,11.387 0.117,1.569 0.237,3.142 0.344,4.72 1.344,0.617 2.695,1.214 4.057,1.772 1.886,0.814 3.816,1.5 5.752,2.146 3.888,1.203 7.898,2.185 12.095,1.672 -1.939,0.864 -4.124,1.149 -6.268,1.175 -2.152,-0.006 -4.299,-0.278 -6.389,-0.733 -3.134,-0.666 -6.144,-1.712 -9.069,-2.934 0.056,1.242 0.099,2.486 0.099,3.737 0.007,1.945 -0.072,3.903 -0.325,5.856 -0.253,1.938 -0.73,3.927 -1.689,5.621 0.371,-1.92 0.443,-3.779 0.315,-5.684 -0.074,-1.887 -0.293,-3.78 -0.487,-5.673 -0.193,-1.668 -0.387,-3.343 -0.573,-5.021 -0.099,-0.045 -0.197,-0.089 -0.294,-0.132 -3.814,-1.841 -7.499,-3.911 -11.003,-6.249 -3.511,-2.325 -6.879,-4.861 -9.99,-7.711 m 2.097,37.382 c 1.708,0.855 3.371,1.783 5.025,2.733 1.672,0.929 3.256,1.931 5.031,2.846 -2.026,0.229 -4.037,-0.269 -5.905,-0.841 -1.875,-0.604 -3.685,-1.356 -5.42,-2.24 -1.733,-0.884 -3.401,-1.892 -5.001,-3.002 -1.6,-1.112 -3.138,-2.331 -4.509,-3.805 1.955,0.473 3.776,1.152 5.558,1.896 1.781,0.742 3.52,1.542 5.221,2.413 m -38.605,-19.241 c 1.403,0.702 2.752,1.471 4.069,2.271 1.32,0.792 2.594,1.646 3.867,2.492 1.298,0.831 2.464,1.743 3.983,2.382 -0.786,0.291 -1.7,0.282 -2.522,0.177 -0.837,-0.117 -1.64,-0.32 -2.423,-0.576 -1.554,-0.527 -2.995,-1.257 -4.365,-2.083 -1.365,-0.835 -2.644,-1.79 -3.843,-2.847 -1.185,-1.075 -2.31,-2.227 -3.228,-3.632 1.609,0.465 3.049,1.126 4.462,1.816 m 16.03,41.102 c 1.137,0.022 2.287,-0.209 2.84,-0.66 l 1.403,2.425 c -1.664,0.743 -3.133,0.556 -4.443,0.327 -1.319,-0.259 -2.552,-0.654 -3.743,-1.118 -2.369,-0.945 -4.606,-2.091 -6.744,-3.388 2.336,0.875 4.734,1.575 7.133,2.043 1.199,0.224 2.404,0.365 3.554,0.371 m -41.594,22.977 c 1.423,0.244 2.852,0.412 4.256,0.494 1.387,0.074 2.826,0.057 3.941,-0.273 l 0.542,2.749 c -1.766,0.195 -3.276,-0.086 -4.766,-0.393 -1.481,-0.329 -2.913,-0.739 -4.312,-1.217 -2.803,-0.948 -5.517,-2.063 -8.166,-3.303 2.81,0.801 5.654,1.467 8.505,1.943 m -80.482,-40.445 c -1.864,-1.217 -3.703,-2.478 -5.403,-3.921 1.653,1.516 3.456,2.855 5.287,4.151 -0.056,0.11 -0.09,0.23 -0.163,0.326 -0.597,0.779 -1.77,1.084 -3.303,0.859 -0.154,-0.023 -0.311,-0.051 -0.468,-0.084 -1.553,-0.324 -3.226,-1.132 -4.759,-2.306 -1.691,-1.294 -2.996,-2.864 -3.674,-4.422 -0.617,-1.421 -0.63,-2.633 -0.033,-3.413 1.307,-1.709 5.216,-1.009 8.529,1.53 1.691,1.293 2.997,2.863 3.674,4.422 0.488,1.123 0.583,2.105 0.313,2.858 m 25.232,16.241 c 10.582,6.158 21.38,11.957 32.444,17.278 0.697,0.335 1.534,0.041 1.868,-0.656 0.336,-0.698 0.042,-1.535 -0.654,-1.87 -0.016,-0.007 -0.039,-0.018 -0.054,-0.025 -11.17,-4.857 -22.143,-10.217 -32.923,-15.95 -5.391,-2.862 -10.728,-5.833 -16,-8.917 -2.633,-1.546 -5.248,-3.124 -7.83,-4.755 -0.293,-0.188 -0.585,-0.378 -0.878,-0.567 0.533,-1.138 0.463,-2.596 -0.233,-4.195 -0.772,-1.774 -2.231,-3.541 -4.105,-4.977 -1.762,-1.349 -3.63,-2.216 -5.329,-2.57 -2.21,-0.46 -4.132,-0.05 -5.168,1.301 -0.919,1.203 -0.967,2.915 -0.137,4.824 0.772,1.773 2.231,3.541 4.107,4.975 1.878,1.437 3.981,2.377 5.874,2.663 2.06,0.304 3.701,-0.192 4.621,-1.393 0.084,-0.111 0.154,-0.232 0.224,-0.351 0.278,0.195 0.553,0.389 0.832,0.582 2.521,1.733 5.078,3.411 7.658,5.059 5.158,3.291 10.39,6.471 15.683,9.544 m 19.639,-24.838 c -0.611,-1.377 -1.2,-2.765 -1.746,-4.172 0.484,1.397 1.014,2.778 1.564,4.151 -0.117,-0.017 -0.232,-0.013 -0.351,-0.039 -1.673,-0.348 -3.413,-1.343 -4.821,-2.9 -2.82,-3.12 -3.259,-7.334 -0.982,-9.398 2.282,-2.06 6.432,-1.197 9.251,1.922 2.822,3.119 3.261,7.333 0.982,9.394 -1.018,0.922 -2.416,1.229 -3.897,1.042 m 14.092,31.142 c 2.595,5.888 5.055,11.847 6.905,17.956 0.918,3.051 1.683,6.145 2.113,9.249 0.431,3.093 0.446,6.236 -0.297,9.069 l -0.013,0.055 c -0.196,0.748 0.252,1.514 0.998,1.71 0.75,0.197 1.517,-0.251 1.713,-0.999 0.002,-0.016 0.009,-0.036 0.013,-0.051 0.771,-3.457 0.575,-6.893 0.01,-10.156 -0.576,-3.273 -1.484,-6.432 -2.536,-9.521 -2.12,-6.177 -4.815,-12.083 -7.634,-17.901 -2.827,-5.819 -5.836,-11.532 -8.805,-17.261 -1.97,-3.84 -3.962,-7.675 -5.775,-11.591 1.586,10e-4 3.069,-0.488 4.214,-1.523 2.953,-2.669 2.566,-7.925 -0.864,-11.717 -1.64,-1.815 -3.684,-2.97 -5.696,-3.39 -2.188,-0.456 -4.335,-0.039 -5.874,1.352 -2.952,2.671 -2.565,7.928 0.862,11.718 2.028,2.242 4.67,3.469 7.105,3.553 1.682,4.02 3.555,7.965 5.4,11.909 2.76,5.836 5.561,11.649 8.161,17.539 M -10.243,64.485 c -1.143,-2.283 -2.308,-4.586 -2.878,-7.088 0.45,2.442 1.465,4.726 2.476,6.984 -1.658,-0.405 -3.263,-1.383 -4.558,-2.815 -1.396,-1.542 -2.25,-3.393 -2.407,-5.209 -0.152,-1.733 0.356,-3.219 1.427,-4.187 2.283,-2.066 6.43,-1.202 9.25,1.917 1.396,1.544 2.25,3.393 2.409,5.209 0.15,1.731 -0.357,3.22 -1.428,4.189 -1.068,0.963 -2.594,1.319 -4.291,1 m 22.372,35.644 c 1.861,2.09 3.827,4.11 6.017,5.94 2.198,1.804 4.608,3.498 7.6,4.418 0.74,0.225 1.525,-0.19 1.75,-0.931 0.229,-0.74 -0.188,-1.524 -0.93,-1.749 -0.016,-0.007 -0.035,-0.013 -0.054,-0.018 l -0.068,-0.017 C 24.1,107.166 21.79,105.765 19.676,104.153 17.55,102.525 15.567,100.657 13.671,98.7 9.877,94.775 6.436,90.469 3.184,86.032 c -3.239,-4.45 -6.294,-9.045 -9.12,-13.783 -1.179,-1.977 -2.308,-3.984 -3.388,-6.018 1.731,0.061 3.289,-0.455 4.472,-1.527 1.463,-1.323 2.162,-3.295 1.963,-5.552 -0.187,-2.171 -1.191,-4.362 -2.825,-6.167 -1.639,-1.814 -3.683,-2.969 -5.694,-3.388 -2.189,-0.455 -4.337,-0.039 -5.878,1.354 -1.463,1.32 -2.159,3.291 -1.962,5.549 0.189,2.172 1.191,4.362 2.826,6.167 1.632,1.808 3.774,2.99 5.852,3.432 0.262,0.05 0.523,0.085 0.782,0.111 1.026,2.155 2.106,4.284 3.242,6.387 2.634,4.873 5.507,9.617 8.579,14.238 3.092,4.609 6.379,9.105 10.096,13.294 m -65.006,-15.84 c -0.202,-2.144 -0.417,-4.306 -0.036,-6.438 -0.473,2.083 -0.368,4.226 -0.265,6.347 -1.408,-0.489 -2.756,-1.376 -3.871,-2.609 -1.394,-1.541 -2.25,-3.39 -2.407,-5.208 -0.151,-1.73 0.356,-3.218 1.428,-4.187 2.28,-2.062 6.43,-1.199 9.25,1.92 2.819,3.119 3.26,7.332 0.979,9.395 -1.071,0.969 -2.604,1.325 -4.31,1 -0.04,-0.009 -0.083,-0.016 -0.125,-0.025 -0.217,-0.046 -0.428,-0.13 -0.643,-0.195 m 2.838,47.265 c 0.149,-1.301 0.332,-2.6 0.452,-3.897 l 0.192,-3.891 c 0.093,-5.176 -0.227,-10.312 -0.689,-15.419 -0.464,-5.111 -1.133,-10.185 -1.776,-15.256 -0.296,-2.344 -0.595,-4.688 -0.845,-7.034 0.097,0.021 0.193,0.048 0.289,0.066 2.226,0.424 4.256,-0.073 5.719,-1.394 2.954,-2.671 2.566,-7.927 -0.863,-11.718 -1.639,-1.815 -3.683,-2.971 -5.694,-3.389 -2.188,-0.457 -4.337,-0.039 -5.878,1.352 -1.463,1.322 -2.159,3.294 -1.963,5.55 0.19,2.171 1.194,4.364 2.827,6.167 1.461,1.619 3.267,2.776 5.18,3.279 0.143,2.4 0.338,4.798 0.53,7.192 0.413,5.099 0.848,10.189 1.075,15.283 0.229,5.09 0.309,10.183 -0.012,15.224 -0.363,5.004 -1.116,10.094 -3.202,14.388 l -0.069,0.144 c -0.339,0.699 -0.047,1.54 0.65,1.879 0.7,0.338 1.541,0.047 1.88,-0.651 0.022,-0.048 0.047,-0.104 0.063,-0.152 0.444,-1.281 0.983,-2.545 1.327,-3.833 0.268,-1.301 0.62,-2.591 0.807,-3.89 m -45.438,-29.932 c -0.01,-0.199 -0.034,-0.396 -0.041,-0.597 -0.066,-1.989 0.287,-4.031 1.288,-5.797 -1.102,1.702 -1.589,3.764 -1.637,5.797 -0.002,0.074 0.005,0.151 0.002,0.226 -0.244,-0.221 -0.493,-0.435 -0.723,-0.688 -1.39,-1.542 -2.247,-3.391 -2.406,-5.209 -0.15,-1.731 0.358,-3.219 1.428,-4.189 1.072,-0.967 2.604,-1.322 4.311,-0.999 1.729,0.373 3.545,1.378 4.94,2.92 1.394,1.542 2.248,3.392 2.408,5.209 0.151,1.731 -0.357,3.219 -1.428,4.186 -1.141,1.034 -2.752,1.332 -4.431,0.984 -1.254,-0.264 -2.548,-0.89 -3.711,-1.843 m 8.263,28.453 c -0.935,-4.017 -2.304,-7.848 -3.653,-11.657 -1.356,-3.805 -2.762,-7.582 -3.741,-11.471 -0.257,-1.045 -0.48,-2.101 -0.642,-3.167 3.111,1.898 6.732,1.985 9.018,-0.08 1.463,-1.322 2.16,-3.292 1.963,-5.549 -0.191,-2.171 -1.193,-4.361 -2.827,-6.167 -1.593,-1.763 -3.612,-2.967 -5.699,-3.401 -0.052,-0.012 -0.101,-0.022 -0.153,-0.031 -2.227,-0.423 -4.256,0.073 -5.718,1.395 -1.463,1.321 -2.161,3.295 -1.967,5.549 0.193,2.172 1.196,4.363 2.826,6.169 0.622,0.688 1.304,1.278 2.019,1.773 0.098,1.227 0.27,2.449 0.496,3.658 0.765,4 1.961,7.883 3.09,11.756 1.128,3.87 2.257,7.738 2.927,11.639 0.656,3.869 0.883,7.888 -0.348,11.333 l -0.007,0.018 c -0.259,0.729 0.121,1.531 0.851,1.791 0.728,0.261 1.531,-0.119 1.791,-0.848 0.01,-0.027 0.02,-0.058 0.028,-0.085 1.237,-4.322 0.642,-8.635 -0.254,-12.625 m 200.776,-39.985 -0.696,0.095 0.69,-0.128 z m 4.002,-1.408 c -0.417,0.231 -0.846,0.439 -1.284,0.622 l -0.069,-0.155 c 0.425,-0.202 0.835,-0.425 1.232,-0.673 z m 3.354,-2.664 -1.021,1.006 -0.234,-0.254 0.958,-1.015 z m 2.383,-3.588 -0.67,1.279 -0.433,-0.247 0.602,-1.251 z m 0.483,-4.24 0.697,0.073 -0.25,1.43 -0.635,-0.132 z m 0.75,-2.832 -0.799,0.08 -0.223,-1.357 0.825,-0.164 z m -1.004,-4.238 -0.838,0.336 -0.581,-1.248 0.835,-0.42 z m -2.793,-5.029 0.771,1.201 -0.836,0.535 -0.781,-1.169 z m -2.445,-3.51 0.837,1.155 -0.868,0.628 -0.847,-1.121 z m -2.628,-3.375 0.895,1.11 -0.897,0.725 -0.904,-1.077 z m -3.717,-2.39 0.927,-0.849 0.945,1.064 -0.919,0.82 z m -2.006,-3.964 0.993,1.025 -0.94,0.913 -0.998,-0.992 z m -4.011,-1.956 0.949,-1.027 1.038,0.978 -0.957,1.006 z m -2.234,-3.881 1.072,0.938 -0.935,1.063 -1.065,-0.921 z m -3.278,-2.742 1.104,0.902 -0.916,1.114 -1.095,-0.885 z m -3.359,-2.635 1.129,0.868 -0.898,1.161 -1.121,-0.852 z m -3.434,-2.537 1.152,0.834 -0.879,1.21 -1.147,-0.821 z m -3.502,-2.443 1.173,0.804 -0.859,1.253 -1.169,-0.789 z m -3.559,-2.356 1.194,0.775 -0.846,1.296 -1.185,-0.762 z m -3.609,-2.275 1.209,0.749 -0.83,1.339 -1.205,-0.735 z m -3.657,-2.194 1.223,0.725 -0.813,1.375 -1.22,-0.71 z m -3.699,-2.123 1.238,0.7 -0.803,1.416 -1.23,-0.687 z m -3.743,-2.038 1.251,0.668 -0.779,1.438 -1.239,-0.674 z m -3.783,-1.967 1.264,0.649 -0.741,1.427 -1.254,-0.653 z m -3.812,-1.905 1.274,0.628 -0.708,1.415 -1.263,-0.632 z m -3.84,-1.847 1.284,0.609 -0.675,1.403 -1.272,-0.615 z m -3.862,-1.791 1.291,0.591 -0.646,1.387 -1.279,-0.597 z m -3.888,-1.741 1.3,0.576 -0.617,1.37 -1.288,-0.58 z m -3.906,-1.691 1.305,0.559 -0.588,1.354 -1.297,-0.564 z m -3.865,-1.696 1.274,0.585 -0.595,1.322 -1.298,-0.605 z m -3.754,-1.897 1.239,0.655 -0.657,1.261 -1.26,-0.678 z M 37.501,9.029 38.705,9.752 37.99,10.949 36.774,10.198 Z M 33.965,6.745 35.13,7.528 34.393,8.621 33.224,7.801 Z M 29.814,5.208 30.56,4.264 31.681,5.11 30.934,6.093 Z m -3.253,-2.786 0.744,-0.835 1.067,0.915 -0.744,0.87 z m -2.34,-3.703 1.01,0.977 -0.741,0.763 -1.004,-1.016 z m -2.887,-3.069 0.938,1.046 -0.724,0.652 -0.934,-1.08 z m -2.653,-3.271 0.854,1.113 -0.703,0.545 -0.848,-1.149 z m -2.386,-3.47 0.763,1.178 -0.664,0.43 -0.737,-1.222 z m -2.051,-3.679 0.641,1.251 -0.579,0.297 -0.61,-1.29 z m -1.623,-3.888 0.487,1.319 -0.477,0.179 -0.451,-1.353 z m -1.088,-4.073 0.296,1.376 -0.36,0.081 -0.253,-1.402 z m -0.449,-4.198 0.073,1.409 -0.218,0.013 -0.011,-1.422 z m 0.106,-2.822 -0.032,-0.004 0.113,-0.691 z M 36.466,17.448 33.48,16.313 C 32.498,15.906 31.594,15.337 30.649,14.854 L 29.247,14.098 27.944,13.194 C 27.084,12.576 26.179,12.017 25.361,11.351 23.774,9.958 22.113,8.646 20.706,7.074 14.801,1.055 10.346,-6.212 7.065,-13.9 5.534,-17.789 4.157,-21.765 3.442,-25.892 2.694,-29.99 2.337,-34.217 3.019,-38.342 c -0.507,4.148 0.002,8.321 0.85,12.364 0.825,4.066 2.306,7.964 3.933,11.761 3.392,7.534 7.916,14.631 13.796,20.404 1.403,1.513 3.045,2.758 4.607,4.083 0.809,0.627 1.679,1.169 2.515,1.757 l 1.263,0.869 1.353,0.717 c 0.91,0.456 1.781,1.001 2.723,1.384 l 2.853,1.067 c 1.948,0.671 3.999,1.287 5.935,2.073 7.814,3.054 15.258,6.887 22.527,10.995 7.233,4.175 14.278,8.676 21.048,13.57 6.747,4.914 13.34,10.109 19.157,16.158 2.887,3.032 5.645,6.239 7.802,9.886 1.091,1.814 1.898,3.81 2.551,5.8 0.634,2.009 1.095,4.118 1.019,6.276 -0.056,2.14 -0.934,4.369 -2.638,5.744 -1.678,1.396 -3.775,2.018 -5.824,2.433 -4.163,0.654 -8.362,0.344 -12.486,-0.152 4.141,0.321 8.343,0.473 12.406,-0.277 1.993,-0.462 3.991,-1.138 5.495,-2.471 1.523,-1.315 2.24,-3.309 2.243,-5.303 0.021,-2.006 -0.436,-4.025 -1.095,-5.963 -0.68,-1.946 -1.475,-3.818 -2.563,-5.557 -2.151,-3.49 -4.915,-6.597 -7.813,-9.531 C 98.803,53.925 92.298,48.735 85.55,43.918 78.799,39.098 71.765,34.667 64.56,30.559 57.366,26.435 49.985,22.581 42.306,19.529 40.384,18.737 38.447,18.144 36.466,17.448 m -350.258,128.007 c -1.617,1.121 -3.598,1.873 -5.658,1.576 1.994,0.584 4.214,0.105 6.074,-0.845 1.866,-0.969 3.569,-2.243 5.092,-3.651 3.11,-2.792 5.737,-5.985 8.408,-9.097 5.231,-6.305 10.305,-12.664 16.015,-18.245 5.728,-5.503 12.109,-10.341 19.366,-12.726 3.601,-1.198 7.355,-1.902 11.152,-1.828 0.944,-0.075 1.895,0.1 2.841,0.133 l 1.421,0.107 1.416,0.236 c 1.909,0.291 3.722,0.664 5.412,1.316 1.738,0.551 3.305,1.449 4.838,2.399 1.468,1.061 2.894,2.213 4.166,3.61 2.602,2.719 4.775,6.069 7.082,9.421 2.302,3.372 4.696,6.834 7.462,10.06 2.745,3.241 5.909,6.199 9.43,8.635 7.038,4.924 15.219,7.719 23.381,9.119 8.199,1.386 16.469,1.637 24.64,1.059 -8.157,-0.664 -16.276,-1.661 -24.053,-3.748 -3.901,-0.972 -7.692,-2.288 -11.284,-3.942 -3.595,-1.647 -7.025,-3.598 -10.089,-6.008 -3.072,-2.403 -5.789,-5.202 -8.249,-8.253 -2.457,-3.062 -4.62,-6.401 -6.811,-9.847 -2.223,-3.432 -4.51,-6.985 -7.508,-10.234 -1.47,-1.641 -3.203,-3.11 -5.039,-4.445 -1.907,-1.231 -3.915,-2.387 -6.073,-3.097 -2.136,-0.79 -4.355,-1.218 -6.48,-1.517 l -1.612,-0.249 -1.634,-0.108 c -1.094,-0.035 -2.177,-0.204 -3.275,-0.119 -4.38,-0.009 -8.79,0.787 -12.883,2.307 -8.232,3.056 -15.098,8.54 -20.736,14.679 -5.718,6.128 -10.372,12.962 -15.069,19.618 -2.334,3.337 -4.663,6.672 -7.328,9.673 -1.31,1.528 -2.778,2.89 -4.415,4.011"
             style="fill:#ffffff;fill-opacity:1;fill-rule:nonzero;stroke:none"
             id="path8498" />
        </g>
        <g
           id="g8500"
           transform="translate(224.3691,293.1348)">
          <path
             d="M 0,0 0.057,-0.027 Z"
             style="fill:#ffffff;fill-opacity:1;fill-rule:nonzero;stroke:none"
             id="path8502" />
        </g>
      </g>
    </g>
  </g>
</svg>
